<svg width="331" height="46" viewBox="0 0 331 46" fill="none" xmlns="http://www.w3.org/2000/svg">
<path d="M0.5 21.3368C0.5 16.6957 0.5 14.3751 1.13722 12.4985C2.32023 9.0146 5.03611 6.26594 8.50557 5.04123C10.3744 4.38154 12.6948 4.3537 17.3356 4.29803L305.296 0.843421C314.565 0.732221 319.2 0.676622 322.096 2.02866C327.512 4.55768 330.725 10.2466 330.094 16.1909C329.757 19.3688 327.317 23.3091 322.436 31.1897L317.793 38.6861C316.596 40.6188 315.997 41.5852 315.253 42.3557C313.878 43.7794 312.112 44.763 310.178 45.1822C309.131 45.4091 307.994 45.4091 305.721 45.4091H17.54C12.8484 45.4091 10.5027 45.4091 8.61299 44.7621C5.10434 43.5608 2.34826 40.8048 1.14698 37.2961C0.5 35.4064 0.5 33.0607 0.5 28.3691V21.3368Z" fill="#C6E77E"/>
</svg>
